<svg width="128" height="128" viewBox="0 0 128 128" fill="none" xmlns="http://www.w3.org/2000/svg">
<g clip-path="url(#clip0_29_2)">
<rect width="128" height="128" fill="white"/>
<path d="M51.12 103.224H63.288L72.072 120H65.352L64.296 117.96H50.112L49.032 120H42.336L51.12 103.224ZM52.344 113.664H62.04L58.776 107.424H55.632L52.344 113.664ZM74.3419 103.224H96.7819C98.7019 103.224 100.238 104.76 100.238 106.68V110.208C100.238 112.128 98.7019 113.664 96.7819 113.664H81.0379V120H74.3419V103.224ZM93.5179 108.648C93.6379 107.976 93.1339 107.424 92.4859 107.424H81.0379V109.512H92.4379C92.9659 109.512 93.4459 109.152 93.5179 108.648ZM103.264 103.224H126.28V107.424H109.96V120H103.264V103.224Z" fill="black"/>
<path d="M99.5 77.5L96 90L64 24L14 126H2L64 4L99.5 77.5ZM91 95H48.5L34 126H22L64 42L91 95ZM53 86.5H75.5L64 62L53 86.5Z" fill="#27348B"/>
</g>
<defs>
<clipPath id="clip0_29_2">
<rect width="128" height="128" fill="white"/>
</clipPath>
</defs>
</svg>
